<svg width="24" height="24" viewBox="0 0 24 24" fill="none" xmlns="http://www.w3.org/2000/svg">
<g id="repeat">
<mask id="mask0_5_2496" style="mask-type:alpha" maskUnits="userSpaceOnUse" x="0" y="0" width="24" height="24">
<rect id="Bounding box" width="24" height="24" fill="#D9D9D9"/>
</mask>
<g mask="url(#mask0_5_2496)">
<path id="repeat_2" d="M6.85005 19L7.70005 19.85C7.90005 20.05 7.99588 20.2833 7.98755 20.55C7.97922 20.8167 7.88338 21.05 7.70005 21.25C7.50005 21.45 7.26255 21.5542 6.98755 21.5625C6.71255 21.5708 6.47505 21.475 6.27505 21.275L3.70005 18.7C3.60005 18.6 3.52922 18.4917 3.48755 18.375C3.44588 18.2583 3.42505 18.1333 3.42505 18C3.42505 17.8667 3.44588 17.7417 3.48755 17.625C3.52922 17.5083 3.60005 17.4 3.70005 17.3L6.27505 14.725C6.47505 14.525 6.71255 14.4292 6.98755 14.4375C7.26255 14.4458 7.50005 14.55 7.70005 14.75C7.88338 14.95 7.97922 15.1833 7.98755 15.45C7.99588 15.7167 7.90005 15.95 7.70005 16.15L6.85005 17H17V14C17 13.7167 17.0959 13.4792 17.2875 13.2875C17.4792 13.0958 17.7167 13 18 13C18.2834 13 18.5209 13.0958 18.7125 13.2875C18.9042 13.4792 19 13.7167 19 14V17C19 17.55 18.8042 18.0208 18.4125 18.4125C18.0209 18.8042 17.55 19 17 19H6.85005ZM17.15 7.00001H7.00005V10C7.00005 10.2833 6.90422 10.5208 6.71255 10.7125C6.52088 10.9042 6.28338 11 6.00005 11C5.71672 11 5.47922 10.9042 5.28755 10.7125C5.09588 10.5208 5.00005 10.2833 5.00005 10V7.00001C5.00005 6.45001 5.19588 5.97918 5.58755 5.58751C5.97922 5.19585 6.45005 5.00001 7.00005 5.00001H17.15L16.3 4.15001C16.1 3.95001 16.0042 3.71668 16.0125 3.45001C16.0209 3.18335 16.1167 2.95001 16.3 2.75001C16.5 2.55001 16.7375 2.44585 17.0125 2.43751C17.2875 2.42918 17.525 2.52501 17.725 2.72501L20.3 5.30001C20.4 5.40001 20.4709 5.50835 20.5125 5.62501C20.5542 5.74168 20.575 5.86668 20.575 6.00001C20.575 6.13335 20.5542 6.25835 20.5125 6.37501C20.4709 6.49168 20.4 6.60001 20.3 6.70001L17.725 9.27501C17.525 9.47501 17.2875 9.57084 17.0125 9.56251C16.7375 9.55418 16.5 9.45001 16.3 9.25001C16.1167 9.05001 16.0209 8.81668 16.0125 8.55001C16.0042 8.28335 16.1 8.05001 16.3 7.85001L17.15 7.00001Z" fill="white"/>
</g>
</g>
</svg>
