<svg width="24" height="24" viewBox="0 0 24 24" fill="none" xmlns="http://www.w3.org/2000/svg">
<g id="shuffle">
<mask id="mask0_5_2492" style="mask-type:alpha" maskUnits="userSpaceOnUse" x="0" y="0" width="24" height="24">
<rect id="Bounding box" width="24" height="24" fill="#D9D9D9"/>
</mask>
<g mask="url(#mask0_5_2492)">
<path id="shuffle_2" d="M15 20C14.7167 20 14.4792 19.9042 14.2875 19.7125C14.0958 19.5208 14 19.2833 14 19C14 18.7167 14.0958 18.4792 14.2875 18.2875C14.4792 18.0958 14.7167 18 15 18H16.6L14.125 15.525C13.925 15.325 13.8292 15.0875 13.8375 14.8125C13.8458 14.5375 13.95 14.3 14.15 14.1C14.35 13.9 14.5875 13.8 14.8625 13.8C15.1375 13.8 15.375 13.9 15.575 14.1L18 16.55V15C18 14.7167 18.0958 14.4792 18.2875 14.2875C18.4792 14.0958 18.7167 14 19 14C19.2833 14 19.5208 14.0958 19.7125 14.2875C19.9042 14.4792 20 14.7167 20 15V19C20 19.2833 19.9042 19.5208 19.7125 19.7125C19.5208 19.9042 19.2833 20 19 20H15ZM4.3 19.7C4.11667 19.5167 4.025 19.2833 4.025 19C4.025 18.7167 4.11667 18.4833 4.3 18.3L16.6 6H15C14.7167 6 14.4792 5.90417 14.2875 5.7125C14.0958 5.52083 14 5.28333 14 5C14 4.71667 14.0958 4.47917 14.2875 4.2875C14.4792 4.09583 14.7167 4 15 4H19C19.2833 4 19.5208 4.09583 19.7125 4.2875C19.9042 4.47917 20 4.71667 20 5V9C20 9.28333 19.9042 9.52083 19.7125 9.7125C19.5208 9.90417 19.2833 10 19 10C18.7167 10 18.4792 9.90417 18.2875 9.7125C18.0958 9.52083 18 9.28333 18 9V7.4L5.7 19.7C5.51667 19.8833 5.28333 19.975 5 19.975C4.71667 19.975 4.48333 19.8833 4.3 19.7ZM4.275 5.7C4.09167 5.51667 4 5.28333 4 5C4 4.71667 4.09167 4.48333 4.275 4.3C4.45833 4.11667 4.6875 4.025 4.9625 4.025C5.2375 4.025 5.475 4.11667 5.675 4.3L9.875 8.475C10.0583 8.65833 10.1542 8.8875 10.1625 9.1625C10.1708 9.4375 10.075 9.675 9.875 9.875C9.69167 10.0583 9.45833 10.15 9.175 10.15C8.89167 10.15 8.65833 10.0583 8.475 9.875L4.275 5.7Z" fill="white"/>
</g>
</g>
</svg>
